<mxfile host="app.diagrams.net" agent="Mozilla/5.0 (Windows NT 10.0; Win64; x64) AppleWebKit/537.36 (KHTML, like Gecko) Chrome/130.0.0.0 Safari/537.36" version="24.8.2">
  <diagram name="Page-1" id="efa7a0a1-bf9b-a30e-e6df-94a7791c09e9">
    <mxGraphModel dx="1655" dy="835" grid="1" gridSize="10" guides="1" tooltips="1" connect="1" arrows="1" fold="1" page="1" pageScale="1" pageWidth="826" pageHeight="1169" background="none" math="0" shadow="0">
      <root>
        <mxCell id="0" />
        <mxCell id="1" parent="0" />
        <mxCell id="d4cAKS4Gmh57V5tir3u1-370" value="Product warehouse" style="shape=table;startSize=55;container=1;collapsible=0;childLayout=tableLayout;strokeColor=#B09500;fontSize=16;fillColor=#e3c800;fontColor=#000000;" vertex="1" parent="1">
          <mxGeometry x="340" y="20" width="1000" height="577" as="geometry" />
        </mxCell>
        <mxCell id="d4cAKS4Gmh57V5tir3u1-371" value="" style="shape=tableRow;horizontal=0;startSize=0;swimlaneHead=0;swimlaneBody=0;strokeColor=inherit;top=0;left=0;bottom=0;right=0;collapsible=0;dropTarget=0;fillColor=none;points=[[0,0.5],[1,0.5]];portConstraint=eastwest;fontSize=16;labelBackgroundColor=none;" vertex="1" parent="d4cAKS4Gmh57V5tir3u1-370">
          <mxGeometry y="55" width="1000" height="67" as="geometry" />
        </mxCell>
        <mxCell id="d4cAKS4Gmh57V5tir3u1-372" value="&lt;b&gt;ID&lt;/b&gt;" style="shape=partialRectangle;html=1;whiteSpace=wrap;connectable=0;strokeColor=inherit;overflow=hidden;fillColor=#666600;top=0;left=0;bottom=0;right=0;pointerEvents=1;fontSize=16;" vertex="1" parent="d4cAKS4Gmh57V5tir3u1-371">
          <mxGeometry width="91" height="67" as="geometry">
            <mxRectangle width="91" height="67" as="alternateBounds" />
          </mxGeometry>
        </mxCell>
        <mxCell id="d4cAKS4Gmh57V5tir3u1-373" value="&lt;b&gt;Product names&lt;/b&gt;" style="shape=partialRectangle;html=1;whiteSpace=wrap;connectable=0;strokeColor=#000000;overflow=hidden;fillColor=#666600;top=0;left=0;bottom=0;right=0;pointerEvents=1;fontSize=16;" vertex="1" parent="d4cAKS4Gmh57V5tir3u1-371">
          <mxGeometry x="91" width="184" height="67" as="geometry">
            <mxRectangle width="184" height="67" as="alternateBounds" />
          </mxGeometry>
        </mxCell>
        <mxCell id="d4cAKS4Gmh57V5tir3u1-374" value="Category" style="shape=partialRectangle;html=1;whiteSpace=wrap;connectable=0;strokeColor=inherit;overflow=hidden;fillColor=#666600;top=0;left=0;bottom=0;right=0;pointerEvents=1;fontSize=16;" vertex="1" parent="d4cAKS4Gmh57V5tir3u1-371">
          <mxGeometry x="275" width="197" height="67" as="geometry">
            <mxRectangle width="197" height="67" as="alternateBounds" />
          </mxGeometry>
        </mxCell>
        <mxCell id="d4cAKS4Gmh57V5tir3u1-375" value="Customer name" style="shape=partialRectangle;html=1;whiteSpace=wrap;connectable=0;strokeColor=inherit;overflow=hidden;fillColor=#666600;top=0;left=0;bottom=0;right=0;pointerEvents=1;fontSize=16;" vertex="1" parent="d4cAKS4Gmh57V5tir3u1-371">
          <mxGeometry x="472" width="170" height="67" as="geometry">
            <mxRectangle width="170" height="67" as="alternateBounds" />
          </mxGeometry>
        </mxCell>
        <mxCell id="d4cAKS4Gmh57V5tir3u1-376" value="Customer Firstname" style="shape=partialRectangle;html=1;whiteSpace=wrap;connectable=0;strokeColor=inherit;overflow=hidden;fillColor=#666600;top=0;left=0;bottom=0;right=0;pointerEvents=1;fontSize=16;" vertex="1" parent="d4cAKS4Gmh57V5tir3u1-371">
          <mxGeometry x="642" width="201" height="67" as="geometry">
            <mxRectangle width="201" height="67" as="alternateBounds" />
          </mxGeometry>
        </mxCell>
        <mxCell id="d4cAKS4Gmh57V5tir3u1-377" value="Date of order" style="shape=partialRectangle;html=1;whiteSpace=wrap;connectable=0;strokeColor=#FAFAFA;overflow=hidden;fillColor=#666600;top=0;left=0;bottom=0;right=0;pointerEvents=1;fontSize=16;" vertex="1" parent="d4cAKS4Gmh57V5tir3u1-371">
          <mxGeometry x="843" width="157" height="67" as="geometry">
            <mxRectangle width="157" height="67" as="alternateBounds" />
          </mxGeometry>
        </mxCell>
        <mxCell id="d4cAKS4Gmh57V5tir3u1-378" value="" style="shape=tableRow;horizontal=0;startSize=0;swimlaneHead=0;swimlaneBody=0;strokeColor=inherit;top=0;left=0;bottom=0;right=0;collapsible=0;dropTarget=0;fillColor=none;points=[[0,0.5],[1,0.5]];portConstraint=eastwest;fontSize=16;" vertex="1" parent="d4cAKS4Gmh57V5tir3u1-370">
          <mxGeometry y="122" width="1000" height="46" as="geometry" />
        </mxCell>
        <mxCell id="d4cAKS4Gmh57V5tir3u1-379" value="1" style="shape=partialRectangle;html=1;whiteSpace=wrap;connectable=0;strokeColor=inherit;overflow=hidden;fillColor=none;top=0;left=0;bottom=0;right=0;pointerEvents=1;fontSize=16;" vertex="1" parent="d4cAKS4Gmh57V5tir3u1-378">
          <mxGeometry width="91" height="46" as="geometry">
            <mxRectangle width="91" height="46" as="alternateBounds" />
          </mxGeometry>
        </mxCell>
        <mxCell id="d4cAKS4Gmh57V5tir3u1-380" value="Iphone 11" style="shape=partialRectangle;html=1;whiteSpace=wrap;connectable=0;strokeColor=inherit;overflow=hidden;fillColor=none;top=0;left=0;bottom=0;right=0;pointerEvents=1;fontSize=16;" vertex="1" parent="d4cAKS4Gmh57V5tir3u1-378">
          <mxGeometry x="91" width="184" height="46" as="geometry">
            <mxRectangle width="184" height="46" as="alternateBounds" />
          </mxGeometry>
        </mxCell>
        <mxCell id="d4cAKS4Gmh57V5tir3u1-381" value="Telephone" style="shape=partialRectangle;html=1;whiteSpace=wrap;connectable=0;strokeColor=inherit;overflow=hidden;fillColor=none;top=0;left=0;bottom=0;right=0;pointerEvents=1;fontSize=16;" vertex="1" parent="d4cAKS4Gmh57V5tir3u1-378">
          <mxGeometry x="275" width="197" height="46" as="geometry">
            <mxRectangle width="197" height="46" as="alternateBounds" />
          </mxGeometry>
        </mxCell>
        <mxCell id="d4cAKS4Gmh57V5tir3u1-382" value="James" style="shape=partialRectangle;html=1;whiteSpace=wrap;connectable=0;strokeColor=inherit;overflow=hidden;fillColor=none;top=0;left=0;bottom=0;right=0;pointerEvents=1;fontSize=16;" vertex="1" parent="d4cAKS4Gmh57V5tir3u1-378">
          <mxGeometry x="472" width="170" height="46" as="geometry">
            <mxRectangle width="170" height="46" as="alternateBounds" />
          </mxGeometry>
        </mxCell>
        <mxCell id="d4cAKS4Gmh57V5tir3u1-383" value="Harrison" style="shape=partialRectangle;html=1;whiteSpace=wrap;connectable=0;strokeColor=inherit;overflow=hidden;fillColor=none;top=0;left=0;bottom=0;right=0;pointerEvents=1;fontSize=16;" vertex="1" parent="d4cAKS4Gmh57V5tir3u1-378">
          <mxGeometry x="642" width="201" height="46" as="geometry">
            <mxRectangle width="201" height="46" as="alternateBounds" />
          </mxGeometry>
        </mxCell>
        <mxCell id="d4cAKS4Gmh57V5tir3u1-384" value="23.10.2022" style="shape=partialRectangle;html=1;whiteSpace=wrap;connectable=0;strokeColor=inherit;overflow=hidden;fillColor=none;top=0;left=0;bottom=0;right=0;pointerEvents=1;fontSize=16;" vertex="1" parent="d4cAKS4Gmh57V5tir3u1-378">
          <mxGeometry x="843" width="157" height="46" as="geometry">
            <mxRectangle width="157" height="46" as="alternateBounds" />
          </mxGeometry>
        </mxCell>
        <mxCell id="d4cAKS4Gmh57V5tir3u1-385" style="shape=tableRow;horizontal=0;startSize=0;swimlaneHead=0;swimlaneBody=0;strokeColor=inherit;top=0;left=0;bottom=0;right=0;collapsible=0;dropTarget=0;fillColor=none;points=[[0,0.5],[1,0.5]];portConstraint=eastwest;fontSize=16;" vertex="1" parent="d4cAKS4Gmh57V5tir3u1-370">
          <mxGeometry y="168" width="1000" height="47" as="geometry" />
        </mxCell>
        <mxCell id="d4cAKS4Gmh57V5tir3u1-386" value="2" style="shape=partialRectangle;html=1;whiteSpace=wrap;connectable=0;strokeColor=inherit;overflow=hidden;fillColor=none;top=0;left=0;bottom=0;right=0;pointerEvents=1;fontSize=16;" vertex="1" parent="d4cAKS4Gmh57V5tir3u1-385">
          <mxGeometry width="91" height="47" as="geometry">
            <mxRectangle width="91" height="47" as="alternateBounds" />
          </mxGeometry>
        </mxCell>
        <mxCell id="d4cAKS4Gmh57V5tir3u1-387" value="Redmi Note 12" style="shape=partialRectangle;html=1;whiteSpace=wrap;connectable=0;strokeColor=inherit;overflow=hidden;fillColor=none;top=0;left=0;bottom=0;right=0;pointerEvents=1;fontSize=16;" vertex="1" parent="d4cAKS4Gmh57V5tir3u1-385">
          <mxGeometry x="91" width="184" height="47" as="geometry">
            <mxRectangle width="184" height="47" as="alternateBounds" />
          </mxGeometry>
        </mxCell>
        <mxCell id="d4cAKS4Gmh57V5tir3u1-388" value="Telephone" style="shape=partialRectangle;html=1;whiteSpace=wrap;connectable=0;strokeColor=inherit;overflow=hidden;fillColor=none;top=0;left=0;bottom=0;right=0;pointerEvents=1;fontSize=16;" vertex="1" parent="d4cAKS4Gmh57V5tir3u1-385">
          <mxGeometry x="275" width="197" height="47" as="geometry">
            <mxRectangle width="197" height="47" as="alternateBounds" />
          </mxGeometry>
        </mxCell>
        <mxCell id="d4cAKS4Gmh57V5tir3u1-389" value="Emily" style="shape=partialRectangle;html=1;whiteSpace=wrap;connectable=0;strokeColor=inherit;overflow=hidden;fillColor=none;top=0;left=0;bottom=0;right=0;pointerEvents=1;fontSize=16;" vertex="1" parent="d4cAKS4Gmh57V5tir3u1-385">
          <mxGeometry x="472" width="170" height="47" as="geometry">
            <mxRectangle width="170" height="47" as="alternateBounds" />
          </mxGeometry>
        </mxCell>
        <mxCell id="d4cAKS4Gmh57V5tir3u1-390" value="Carter" style="shape=partialRectangle;html=1;whiteSpace=wrap;connectable=0;strokeColor=inherit;overflow=hidden;fillColor=none;top=0;left=0;bottom=0;right=0;pointerEvents=1;fontSize=16;" vertex="1" parent="d4cAKS4Gmh57V5tir3u1-385">
          <mxGeometry x="642" width="201" height="47" as="geometry">
            <mxRectangle width="201" height="47" as="alternateBounds" />
          </mxGeometry>
        </mxCell>
        <mxCell id="d4cAKS4Gmh57V5tir3u1-391" value="24.10.2022" style="shape=partialRectangle;html=1;whiteSpace=wrap;connectable=0;strokeColor=inherit;overflow=hidden;fillColor=none;top=0;left=0;bottom=0;right=0;pointerEvents=1;fontSize=16;" vertex="1" parent="d4cAKS4Gmh57V5tir3u1-385">
          <mxGeometry x="843" width="157" height="47" as="geometry">
            <mxRectangle width="157" height="47" as="alternateBounds" />
          </mxGeometry>
        </mxCell>
        <mxCell id="d4cAKS4Gmh57V5tir3u1-392" style="shape=tableRow;horizontal=0;startSize=0;swimlaneHead=0;swimlaneBody=0;strokeColor=inherit;top=0;left=0;bottom=0;right=0;collapsible=0;dropTarget=0;fillColor=none;points=[[0,0.5],[1,0.5]];portConstraint=eastwest;fontSize=16;" vertex="1" parent="d4cAKS4Gmh57V5tir3u1-370">
          <mxGeometry y="215" width="1000" height="44" as="geometry" />
        </mxCell>
        <mxCell id="d4cAKS4Gmh57V5tir3u1-393" value="3" style="shape=partialRectangle;html=1;whiteSpace=wrap;connectable=0;strokeColor=inherit;overflow=hidden;fillColor=none;top=0;left=0;bottom=0;right=0;pointerEvents=1;fontSize=16;" vertex="1" parent="d4cAKS4Gmh57V5tir3u1-392">
          <mxGeometry width="91" height="44" as="geometry">
            <mxRectangle width="91" height="44" as="alternateBounds" />
          </mxGeometry>
        </mxCell>
        <mxCell id="d4cAKS4Gmh57V5tir3u1-394" value="Galaxy S23+" style="shape=partialRectangle;html=1;whiteSpace=wrap;connectable=0;strokeColor=inherit;overflow=hidden;fillColor=none;top=0;left=0;bottom=0;right=0;pointerEvents=1;fontSize=16;" vertex="1" parent="d4cAKS4Gmh57V5tir3u1-392">
          <mxGeometry x="91" width="184" height="44" as="geometry">
            <mxRectangle width="184" height="44" as="alternateBounds" />
          </mxGeometry>
        </mxCell>
        <mxCell id="d4cAKS4Gmh57V5tir3u1-395" value="Telephone" style="shape=partialRectangle;html=1;whiteSpace=wrap;connectable=0;strokeColor=inherit;overflow=hidden;fillColor=none;top=0;left=0;bottom=0;right=0;pointerEvents=1;fontSize=16;" vertex="1" parent="d4cAKS4Gmh57V5tir3u1-392">
          <mxGeometry x="275" width="197" height="44" as="geometry">
            <mxRectangle width="197" height="44" as="alternateBounds" />
          </mxGeometry>
        </mxCell>
        <mxCell id="d4cAKS4Gmh57V5tir3u1-396" value="Michael" style="shape=partialRectangle;html=1;whiteSpace=wrap;connectable=0;strokeColor=inherit;overflow=hidden;fillColor=none;top=0;left=0;bottom=0;right=0;pointerEvents=1;fontSize=16;" vertex="1" parent="d4cAKS4Gmh57V5tir3u1-392">
          <mxGeometry x="472" width="170" height="44" as="geometry">
            <mxRectangle width="170" height="44" as="alternateBounds" />
          </mxGeometry>
        </mxCell>
        <mxCell id="d4cAKS4Gmh57V5tir3u1-397" value="Bennett" style="shape=partialRectangle;html=1;whiteSpace=wrap;connectable=0;strokeColor=inherit;overflow=hidden;fillColor=none;top=0;left=0;bottom=0;right=0;pointerEvents=1;fontSize=16;" vertex="1" parent="d4cAKS4Gmh57V5tir3u1-392">
          <mxGeometry x="642" width="201" height="44" as="geometry">
            <mxRectangle width="201" height="44" as="alternateBounds" />
          </mxGeometry>
        </mxCell>
        <mxCell id="d4cAKS4Gmh57V5tir3u1-398" value="25.10.2022" style="shape=partialRectangle;html=1;whiteSpace=wrap;connectable=0;strokeColor=inherit;overflow=hidden;fillColor=none;top=0;left=0;bottom=0;right=0;pointerEvents=1;fontSize=16;" vertex="1" parent="d4cAKS4Gmh57V5tir3u1-392">
          <mxGeometry x="843" width="157" height="44" as="geometry">
            <mxRectangle width="157" height="44" as="alternateBounds" />
          </mxGeometry>
        </mxCell>
        <mxCell id="d4cAKS4Gmh57V5tir3u1-399" style="shape=tableRow;horizontal=0;startSize=0;swimlaneHead=0;swimlaneBody=0;strokeColor=inherit;top=0;left=0;bottom=0;right=0;collapsible=0;dropTarget=0;fillColor=none;points=[[0,0.5],[1,0.5]];portConstraint=eastwest;fontSize=16;" vertex="1" parent="d4cAKS4Gmh57V5tir3u1-370">
          <mxGeometry y="259" width="1000" height="42" as="geometry" />
        </mxCell>
        <mxCell id="d4cAKS4Gmh57V5tir3u1-400" value="4" style="shape=partialRectangle;html=1;whiteSpace=wrap;connectable=0;strokeColor=inherit;overflow=hidden;fillColor=none;top=0;left=0;bottom=0;right=0;pointerEvents=1;fontSize=16;" vertex="1" parent="d4cAKS4Gmh57V5tir3u1-399">
          <mxGeometry width="91" height="42" as="geometry">
            <mxRectangle width="91" height="42" as="alternateBounds" />
          </mxGeometry>
        </mxCell>
        <mxCell id="d4cAKS4Gmh57V5tir3u1-401" value="Nokia G10" style="shape=partialRectangle;html=1;whiteSpace=wrap;connectable=0;strokeColor=inherit;overflow=hidden;fillColor=none;top=0;left=0;bottom=0;right=0;pointerEvents=1;fontSize=16;" vertex="1" parent="d4cAKS4Gmh57V5tir3u1-399">
          <mxGeometry x="91" width="184" height="42" as="geometry">
            <mxRectangle width="184" height="42" as="alternateBounds" />
          </mxGeometry>
        </mxCell>
        <mxCell id="d4cAKS4Gmh57V5tir3u1-402" value="Telephone" style="shape=partialRectangle;html=1;whiteSpace=wrap;connectable=0;strokeColor=inherit;overflow=hidden;fillColor=none;top=0;left=0;bottom=0;right=0;pointerEvents=1;fontSize=16;" vertex="1" parent="d4cAKS4Gmh57V5tir3u1-399">
          <mxGeometry x="275" width="197" height="42" as="geometry">
            <mxRectangle width="197" height="42" as="alternateBounds" />
          </mxGeometry>
        </mxCell>
        <mxCell id="d4cAKS4Gmh57V5tir3u1-403" value="James" style="shape=partialRectangle;html=1;whiteSpace=wrap;connectable=0;strokeColor=inherit;overflow=hidden;fillColor=none;top=0;left=0;bottom=0;right=0;pointerEvents=1;fontSize=16;" vertex="1" parent="d4cAKS4Gmh57V5tir3u1-399">
          <mxGeometry x="472" width="170" height="42" as="geometry">
            <mxRectangle width="170" height="42" as="alternateBounds" />
          </mxGeometry>
        </mxCell>
        <mxCell id="d4cAKS4Gmh57V5tir3u1-404" value="Harrison" style="shape=partialRectangle;html=1;whiteSpace=wrap;connectable=0;strokeColor=inherit;overflow=hidden;fillColor=none;top=0;left=0;bottom=0;right=0;pointerEvents=1;fontSize=16;" vertex="1" parent="d4cAKS4Gmh57V5tir3u1-399">
          <mxGeometry x="642" width="201" height="42" as="geometry">
            <mxRectangle width="201" height="42" as="alternateBounds" />
          </mxGeometry>
        </mxCell>
        <mxCell id="d4cAKS4Gmh57V5tir3u1-405" value="23.10.2022" style="shape=partialRectangle;html=1;whiteSpace=wrap;connectable=0;strokeColor=inherit;overflow=hidden;fillColor=none;top=0;left=0;bottom=0;right=0;pointerEvents=1;fontSize=16;" vertex="1" parent="d4cAKS4Gmh57V5tir3u1-399">
          <mxGeometry x="843" width="157" height="42" as="geometry">
            <mxRectangle width="157" height="42" as="alternateBounds" />
          </mxGeometry>
        </mxCell>
        <mxCell id="d4cAKS4Gmh57V5tir3u1-406" style="shape=tableRow;horizontal=0;startSize=0;swimlaneHead=0;swimlaneBody=0;strokeColor=inherit;top=0;left=0;bottom=0;right=0;collapsible=0;dropTarget=0;fillColor=none;points=[[0,0.5],[1,0.5]];portConstraint=eastwest;fontSize=16;" vertex="1" parent="d4cAKS4Gmh57V5tir3u1-370">
          <mxGeometry y="301" width="1000" height="47" as="geometry" />
        </mxCell>
        <mxCell id="d4cAKS4Gmh57V5tir3u1-407" value="5" style="shape=partialRectangle;html=1;whiteSpace=wrap;connectable=0;strokeColor=inherit;overflow=hidden;fillColor=none;top=0;left=0;bottom=0;right=0;pointerEvents=1;fontSize=16;" vertex="1" parent="d4cAKS4Gmh57V5tir3u1-406">
          <mxGeometry width="91" height="47" as="geometry">
            <mxRectangle width="91" height="47" as="alternateBounds" />
          </mxGeometry>
        </mxCell>
        <mxCell id="d4cAKS4Gmh57V5tir3u1-408" value="Lenovo ThinkPad" style="shape=partialRectangle;html=1;whiteSpace=wrap;connectable=0;strokeColor=inherit;overflow=hidden;fillColor=none;top=0;left=0;bottom=0;right=0;pointerEvents=1;fontSize=16;" vertex="1" parent="d4cAKS4Gmh57V5tir3u1-406">
          <mxGeometry x="91" width="184" height="47" as="geometry">
            <mxRectangle width="184" height="47" as="alternateBounds" />
          </mxGeometry>
        </mxCell>
        <mxCell id="d4cAKS4Gmh57V5tir3u1-409" value="Laptop" style="shape=partialRectangle;html=1;whiteSpace=wrap;connectable=0;strokeColor=inherit;overflow=hidden;fillColor=none;top=0;left=0;bottom=0;right=0;pointerEvents=1;fontSize=16;" vertex="1" parent="d4cAKS4Gmh57V5tir3u1-406">
          <mxGeometry x="275" width="197" height="47" as="geometry">
            <mxRectangle width="197" height="47" as="alternateBounds" />
          </mxGeometry>
        </mxCell>
        <mxCell id="d4cAKS4Gmh57V5tir3u1-410" value="Daniel" style="shape=partialRectangle;html=1;whiteSpace=wrap;connectable=0;strokeColor=inherit;overflow=hidden;fillColor=none;top=0;left=0;bottom=0;right=0;pointerEvents=1;fontSize=16;" vertex="1" parent="d4cAKS4Gmh57V5tir3u1-406">
          <mxGeometry x="472" width="170" height="47" as="geometry">
            <mxRectangle width="170" height="47" as="alternateBounds" />
          </mxGeometry>
        </mxCell>
        <mxCell id="d4cAKS4Gmh57V5tir3u1-411" value="Turner" style="shape=partialRectangle;html=1;whiteSpace=wrap;connectable=0;strokeColor=inherit;overflow=hidden;fillColor=none;top=0;left=0;bottom=0;right=0;pointerEvents=1;fontSize=16;" vertex="1" parent="d4cAKS4Gmh57V5tir3u1-406">
          <mxGeometry x="642" width="201" height="47" as="geometry">
            <mxRectangle width="201" height="47" as="alternateBounds" />
          </mxGeometry>
        </mxCell>
        <mxCell id="d4cAKS4Gmh57V5tir3u1-412" value="26.10.2022" style="shape=partialRectangle;html=1;whiteSpace=wrap;connectable=0;strokeColor=inherit;overflow=hidden;fillColor=none;top=0;left=0;bottom=0;right=0;pointerEvents=1;fontSize=16;" vertex="1" parent="d4cAKS4Gmh57V5tir3u1-406">
          <mxGeometry x="843" width="157" height="47" as="geometry">
            <mxRectangle width="157" height="47" as="alternateBounds" />
          </mxGeometry>
        </mxCell>
        <mxCell id="d4cAKS4Gmh57V5tir3u1-413" style="shape=tableRow;horizontal=0;startSize=0;swimlaneHead=0;swimlaneBody=0;strokeColor=inherit;top=0;left=0;bottom=0;right=0;collapsible=0;dropTarget=0;fillColor=none;points=[[0,0.5],[1,0.5]];portConstraint=eastwest;fontSize=16;" vertex="1" parent="d4cAKS4Gmh57V5tir3u1-370">
          <mxGeometry y="348" width="1000" height="45" as="geometry" />
        </mxCell>
        <mxCell id="d4cAKS4Gmh57V5tir3u1-414" value="6" style="shape=partialRectangle;html=1;whiteSpace=wrap;connectable=0;strokeColor=inherit;overflow=hidden;fillColor=none;top=0;left=0;bottom=0;right=0;pointerEvents=1;fontSize=16;" vertex="1" parent="d4cAKS4Gmh57V5tir3u1-413">
          <mxGeometry width="91" height="45" as="geometry">
            <mxRectangle width="91" height="45" as="alternateBounds" />
          </mxGeometry>
        </mxCell>
        <mxCell id="d4cAKS4Gmh57V5tir3u1-415" value="Asus VivoBook" style="shape=partialRectangle;html=1;whiteSpace=wrap;connectable=0;strokeColor=inherit;overflow=hidden;fillColor=none;top=0;left=0;bottom=0;right=0;pointerEvents=1;fontSize=16;" vertex="1" parent="d4cAKS4Gmh57V5tir3u1-413">
          <mxGeometry x="91" width="184" height="45" as="geometry">
            <mxRectangle width="184" height="45" as="alternateBounds" />
          </mxGeometry>
        </mxCell>
        <mxCell id="d4cAKS4Gmh57V5tir3u1-416" value="Laptop" style="shape=partialRectangle;html=1;whiteSpace=wrap;connectable=0;strokeColor=inherit;overflow=hidden;fillColor=none;top=0;left=0;bottom=0;right=0;pointerEvents=1;fontSize=16;" vertex="1" parent="d4cAKS4Gmh57V5tir3u1-413">
          <mxGeometry x="275" width="197" height="45" as="geometry">
            <mxRectangle width="197" height="45" as="alternateBounds" />
          </mxGeometry>
        </mxCell>
        <mxCell id="d4cAKS4Gmh57V5tir3u1-417" value="Olivia" style="shape=partialRectangle;html=1;whiteSpace=wrap;connectable=0;strokeColor=inherit;overflow=hidden;fillColor=none;top=0;left=0;bottom=0;right=0;pointerEvents=1;fontSize=16;" vertex="1" parent="d4cAKS4Gmh57V5tir3u1-413">
          <mxGeometry x="472" width="170" height="45" as="geometry">
            <mxRectangle width="170" height="45" as="alternateBounds" />
          </mxGeometry>
        </mxCell>
        <mxCell id="d4cAKS4Gmh57V5tir3u1-418" value="Parker" style="shape=partialRectangle;html=1;whiteSpace=wrap;connectable=0;strokeColor=inherit;overflow=hidden;fillColor=none;top=0;left=0;bottom=0;right=0;pointerEvents=1;fontSize=16;" vertex="1" parent="d4cAKS4Gmh57V5tir3u1-413">
          <mxGeometry x="642" width="201" height="45" as="geometry">
            <mxRectangle width="201" height="45" as="alternateBounds" />
          </mxGeometry>
        </mxCell>
        <mxCell id="d4cAKS4Gmh57V5tir3u1-419" value="27.10.2022" style="shape=partialRectangle;html=1;whiteSpace=wrap;connectable=0;strokeColor=inherit;overflow=hidden;fillColor=none;top=0;left=0;bottom=0;right=0;pointerEvents=1;fontSize=16;" vertex="1" parent="d4cAKS4Gmh57V5tir3u1-413">
          <mxGeometry x="843" width="157" height="45" as="geometry">
            <mxRectangle width="157" height="45" as="alternateBounds" />
          </mxGeometry>
        </mxCell>
        <mxCell id="d4cAKS4Gmh57V5tir3u1-420" style="shape=tableRow;horizontal=0;startSize=0;swimlaneHead=0;swimlaneBody=0;strokeColor=inherit;top=0;left=0;bottom=0;right=0;collapsible=0;dropTarget=0;fillColor=none;points=[[0,0.5],[1,0.5]];portConstraint=eastwest;fontSize=16;" vertex="1" parent="d4cAKS4Gmh57V5tir3u1-370">
          <mxGeometry y="393" width="1000" height="47" as="geometry" />
        </mxCell>
        <mxCell id="d4cAKS4Gmh57V5tir3u1-421" value="7" style="shape=partialRectangle;html=1;whiteSpace=wrap;connectable=0;strokeColor=inherit;overflow=hidden;fillColor=none;top=0;left=0;bottom=0;right=0;pointerEvents=1;fontSize=16;" vertex="1" parent="d4cAKS4Gmh57V5tir3u1-420">
          <mxGeometry width="91" height="47" as="geometry">
            <mxRectangle width="91" height="47" as="alternateBounds" />
          </mxGeometry>
        </mxCell>
        <mxCell id="d4cAKS4Gmh57V5tir3u1-422" value="MacBook Air" style="shape=partialRectangle;html=1;whiteSpace=wrap;connectable=0;strokeColor=inherit;overflow=hidden;fillColor=none;top=0;left=0;bottom=0;right=0;pointerEvents=1;fontSize=16;" vertex="1" parent="d4cAKS4Gmh57V5tir3u1-420">
          <mxGeometry x="91" width="184" height="47" as="geometry">
            <mxRectangle width="184" height="47" as="alternateBounds" />
          </mxGeometry>
        </mxCell>
        <mxCell id="d4cAKS4Gmh57V5tir3u1-423" value="Laptop" style="shape=partialRectangle;html=1;whiteSpace=wrap;connectable=0;strokeColor=inherit;overflow=hidden;fillColor=none;top=0;left=0;bottom=0;right=0;pointerEvents=1;fontSize=16;" vertex="1" parent="d4cAKS4Gmh57V5tir3u1-420">
          <mxGeometry x="275" width="197" height="47" as="geometry">
            <mxRectangle width="197" height="47" as="alternateBounds" />
          </mxGeometry>
        </mxCell>
        <mxCell id="d4cAKS4Gmh57V5tir3u1-424" value="Daniel" style="shape=partialRectangle;html=1;whiteSpace=wrap;connectable=0;strokeColor=inherit;overflow=hidden;fillColor=none;top=0;left=0;bottom=0;right=0;pointerEvents=1;fontSize=16;" vertex="1" parent="d4cAKS4Gmh57V5tir3u1-420">
          <mxGeometry x="472" width="170" height="47" as="geometry">
            <mxRectangle width="170" height="47" as="alternateBounds" />
          </mxGeometry>
        </mxCell>
        <mxCell id="d4cAKS4Gmh57V5tir3u1-425" value="Turner" style="shape=partialRectangle;html=1;whiteSpace=wrap;connectable=0;strokeColor=inherit;overflow=hidden;fillColor=none;top=0;left=0;bottom=0;right=0;pointerEvents=1;fontSize=16;" vertex="1" parent="d4cAKS4Gmh57V5tir3u1-420">
          <mxGeometry x="642" width="201" height="47" as="geometry">
            <mxRectangle width="201" height="47" as="alternateBounds" />
          </mxGeometry>
        </mxCell>
        <mxCell id="d4cAKS4Gmh57V5tir3u1-426" value="26.10.2024" style="shape=partialRectangle;html=1;whiteSpace=wrap;connectable=0;strokeColor=inherit;overflow=hidden;fillColor=none;top=0;left=0;bottom=0;right=0;pointerEvents=1;fontSize=16;" vertex="1" parent="d4cAKS4Gmh57V5tir3u1-420">
          <mxGeometry x="843" width="157" height="47" as="geometry">
            <mxRectangle width="157" height="47" as="alternateBounds" />
          </mxGeometry>
        </mxCell>
        <mxCell id="d4cAKS4Gmh57V5tir3u1-427" style="shape=tableRow;horizontal=0;startSize=0;swimlaneHead=0;swimlaneBody=0;strokeColor=inherit;top=0;left=0;bottom=0;right=0;collapsible=0;dropTarget=0;fillColor=none;points=[[0,0.5],[1,0.5]];portConstraint=eastwest;fontSize=16;" vertex="1" parent="d4cAKS4Gmh57V5tir3u1-370">
          <mxGeometry y="440" width="1000" height="50" as="geometry" />
        </mxCell>
        <mxCell id="d4cAKS4Gmh57V5tir3u1-428" value="8" style="shape=partialRectangle;html=1;whiteSpace=wrap;connectable=0;strokeColor=inherit;overflow=hidden;fillColor=none;top=0;left=0;bottom=0;right=0;pointerEvents=1;fontSize=16;" vertex="1" parent="d4cAKS4Gmh57V5tir3u1-427">
          <mxGeometry width="91" height="50" as="geometry">
            <mxRectangle width="91" height="50" as="alternateBounds" />
          </mxGeometry>
        </mxCell>
        <mxCell id="d4cAKS4Gmh57V5tir3u1-429" value="Galaxy S23+" style="shape=partialRectangle;html=1;whiteSpace=wrap;connectable=0;strokeColor=inherit;overflow=hidden;fillColor=none;top=0;left=0;bottom=0;right=0;pointerEvents=1;fontSize=16;" vertex="1" parent="d4cAKS4Gmh57V5tir3u1-427">
          <mxGeometry x="91" width="184" height="50" as="geometry">
            <mxRectangle width="184" height="50" as="alternateBounds" />
          </mxGeometry>
        </mxCell>
        <mxCell id="d4cAKS4Gmh57V5tir3u1-430" value="Telephone" style="shape=partialRectangle;html=1;whiteSpace=wrap;connectable=0;strokeColor=inherit;overflow=hidden;fillColor=none;top=0;left=0;bottom=0;right=0;pointerEvents=1;fontSize=16;" vertex="1" parent="d4cAKS4Gmh57V5tir3u1-427">
          <mxGeometry x="275" width="197" height="50" as="geometry">
            <mxRectangle width="197" height="50" as="alternateBounds" />
          </mxGeometry>
        </mxCell>
        <mxCell id="d4cAKS4Gmh57V5tir3u1-431" value="Michael" style="shape=partialRectangle;html=1;whiteSpace=wrap;connectable=0;strokeColor=inherit;overflow=hidden;fillColor=none;top=0;left=0;bottom=0;right=0;pointerEvents=1;fontSize=16;" vertex="1" parent="d4cAKS4Gmh57V5tir3u1-427">
          <mxGeometry x="472" width="170" height="50" as="geometry">
            <mxRectangle width="170" height="50" as="alternateBounds" />
          </mxGeometry>
        </mxCell>
        <mxCell id="d4cAKS4Gmh57V5tir3u1-432" value="Bennett" style="shape=partialRectangle;html=1;whiteSpace=wrap;connectable=0;strokeColor=inherit;overflow=hidden;fillColor=none;top=0;left=0;bottom=0;right=0;pointerEvents=1;fontSize=16;" vertex="1" parent="d4cAKS4Gmh57V5tir3u1-427">
          <mxGeometry x="642" width="201" height="50" as="geometry">
            <mxRectangle width="201" height="50" as="alternateBounds" />
          </mxGeometry>
        </mxCell>
        <mxCell id="d4cAKS4Gmh57V5tir3u1-433" value="25.10.2022" style="shape=partialRectangle;html=1;whiteSpace=wrap;connectable=0;strokeColor=inherit;overflow=hidden;fillColor=none;top=0;left=0;bottom=0;right=0;pointerEvents=1;fontSize=16;" vertex="1" parent="d4cAKS4Gmh57V5tir3u1-427">
          <mxGeometry x="843" width="157" height="50" as="geometry">
            <mxRectangle width="157" height="50" as="alternateBounds" />
          </mxGeometry>
        </mxCell>
        <mxCell id="d4cAKS4Gmh57V5tir3u1-434" style="shape=tableRow;horizontal=0;startSize=0;swimlaneHead=0;swimlaneBody=0;strokeColor=inherit;top=0;left=0;bottom=0;right=0;collapsible=0;dropTarget=0;fillColor=none;points=[[0,0.5],[1,0.5]];portConstraint=eastwest;fontSize=16;" vertex="1" parent="d4cAKS4Gmh57V5tir3u1-370">
          <mxGeometry y="490" width="1000" height="40" as="geometry" />
        </mxCell>
        <mxCell id="d4cAKS4Gmh57V5tir3u1-435" value="9" style="shape=partialRectangle;html=1;whiteSpace=wrap;connectable=0;strokeColor=inherit;overflow=hidden;fillColor=none;top=0;left=0;bottom=0;right=0;pointerEvents=1;fontSize=16;" vertex="1" parent="d4cAKS4Gmh57V5tir3u1-434">
          <mxGeometry width="91" height="40" as="geometry">
            <mxRectangle width="91" height="40" as="alternateBounds" />
          </mxGeometry>
        </mxCell>
        <mxCell id="d4cAKS4Gmh57V5tir3u1-436" value="Nokia G10" style="shape=partialRectangle;html=1;whiteSpace=wrap;connectable=0;strokeColor=inherit;overflow=hidden;fillColor=none;top=0;left=0;bottom=0;right=0;pointerEvents=1;fontSize=16;" vertex="1" parent="d4cAKS4Gmh57V5tir3u1-434">
          <mxGeometry x="91" width="184" height="40" as="geometry">
            <mxRectangle width="184" height="40" as="alternateBounds" />
          </mxGeometry>
        </mxCell>
        <mxCell id="d4cAKS4Gmh57V5tir3u1-437" value="Telephone" style="shape=partialRectangle;html=1;whiteSpace=wrap;connectable=0;strokeColor=inherit;overflow=hidden;fillColor=none;top=0;left=0;bottom=0;right=0;pointerEvents=1;fontSize=16;" vertex="1" parent="d4cAKS4Gmh57V5tir3u1-434">
          <mxGeometry x="275" width="197" height="40" as="geometry">
            <mxRectangle width="197" height="40" as="alternateBounds" />
          </mxGeometry>
        </mxCell>
        <mxCell id="d4cAKS4Gmh57V5tir3u1-438" value="Olivia" style="shape=partialRectangle;html=1;whiteSpace=wrap;connectable=0;strokeColor=inherit;overflow=hidden;fillColor=none;top=0;left=0;bottom=0;right=0;pointerEvents=1;fontSize=16;" vertex="1" parent="d4cAKS4Gmh57V5tir3u1-434">
          <mxGeometry x="472" width="170" height="40" as="geometry">
            <mxRectangle width="170" height="40" as="alternateBounds" />
          </mxGeometry>
        </mxCell>
        <mxCell id="d4cAKS4Gmh57V5tir3u1-439" value="Parker" style="shape=partialRectangle;html=1;whiteSpace=wrap;connectable=0;strokeColor=inherit;overflow=hidden;fillColor=none;top=0;left=0;bottom=0;right=0;pointerEvents=1;fontSize=16;" vertex="1" parent="d4cAKS4Gmh57V5tir3u1-434">
          <mxGeometry x="642" width="201" height="40" as="geometry">
            <mxRectangle width="201" height="40" as="alternateBounds" />
          </mxGeometry>
        </mxCell>
        <mxCell id="d4cAKS4Gmh57V5tir3u1-440" value="27.10.2022" style="shape=partialRectangle;html=1;whiteSpace=wrap;connectable=0;strokeColor=inherit;overflow=hidden;fillColor=none;top=0;left=0;bottom=0;right=0;pointerEvents=1;fontSize=16;" vertex="1" parent="d4cAKS4Gmh57V5tir3u1-434">
          <mxGeometry x="843" width="157" height="40" as="geometry">
            <mxRectangle width="157" height="40" as="alternateBounds" />
          </mxGeometry>
        </mxCell>
        <mxCell id="d4cAKS4Gmh57V5tir3u1-441" style="shape=tableRow;horizontal=0;startSize=0;swimlaneHead=0;swimlaneBody=0;strokeColor=inherit;top=0;left=0;bottom=0;right=0;collapsible=0;dropTarget=0;fillColor=none;points=[[0,0.5],[1,0.5]];portConstraint=eastwest;fontSize=16;" vertex="1" parent="d4cAKS4Gmh57V5tir3u1-370">
          <mxGeometry y="530" width="1000" height="47" as="geometry" />
        </mxCell>
        <mxCell id="d4cAKS4Gmh57V5tir3u1-442" value="10" style="shape=partialRectangle;html=1;whiteSpace=wrap;connectable=0;strokeColor=inherit;overflow=hidden;fillColor=none;top=0;left=0;bottom=0;right=0;pointerEvents=1;fontSize=16;" vertex="1" parent="d4cAKS4Gmh57V5tir3u1-441">
          <mxGeometry width="91" height="47" as="geometry">
            <mxRectangle width="91" height="47" as="alternateBounds" />
          </mxGeometry>
        </mxCell>
        <mxCell id="d4cAKS4Gmh57V5tir3u1-443" value="Asus VivoBook" style="shape=partialRectangle;html=1;whiteSpace=wrap;connectable=0;strokeColor=inherit;overflow=hidden;fillColor=none;top=0;left=0;bottom=0;right=0;pointerEvents=1;fontSize=16;" vertex="1" parent="d4cAKS4Gmh57V5tir3u1-441">
          <mxGeometry x="91" width="184" height="47" as="geometry">
            <mxRectangle width="184" height="47" as="alternateBounds" />
          </mxGeometry>
        </mxCell>
        <mxCell id="d4cAKS4Gmh57V5tir3u1-444" value="Laptop" style="shape=partialRectangle;html=1;whiteSpace=wrap;connectable=0;strokeColor=inherit;overflow=hidden;fillColor=none;top=0;left=0;bottom=0;right=0;pointerEvents=1;fontSize=16;" vertex="1" parent="d4cAKS4Gmh57V5tir3u1-441">
          <mxGeometry x="275" width="197" height="47" as="geometry">
            <mxRectangle width="197" height="47" as="alternateBounds" />
          </mxGeometry>
        </mxCell>
        <mxCell id="d4cAKS4Gmh57V5tir3u1-445" value="Emily" style="shape=partialRectangle;html=1;whiteSpace=wrap;connectable=0;strokeColor=inherit;overflow=hidden;fillColor=none;top=0;left=0;bottom=0;right=0;pointerEvents=1;fontSize=16;" vertex="1" parent="d4cAKS4Gmh57V5tir3u1-441">
          <mxGeometry x="472" width="170" height="47" as="geometry">
            <mxRectangle width="170" height="47" as="alternateBounds" />
          </mxGeometry>
        </mxCell>
        <mxCell id="d4cAKS4Gmh57V5tir3u1-446" value="Carter" style="shape=partialRectangle;html=1;whiteSpace=wrap;connectable=0;strokeColor=inherit;overflow=hidden;fillColor=none;top=0;left=0;bottom=0;right=0;pointerEvents=1;fontSize=16;" vertex="1" parent="d4cAKS4Gmh57V5tir3u1-441">
          <mxGeometry x="642" width="201" height="47" as="geometry">
            <mxRectangle width="201" height="47" as="alternateBounds" />
          </mxGeometry>
        </mxCell>
        <mxCell id="d4cAKS4Gmh57V5tir3u1-447" value="24.10.2022" style="shape=partialRectangle;html=1;whiteSpace=wrap;connectable=0;strokeColor=inherit;overflow=hidden;fillColor=none;top=0;left=0;bottom=0;right=0;pointerEvents=1;fontSize=16;" vertex="1" parent="d4cAKS4Gmh57V5tir3u1-441">
          <mxGeometry x="843" width="157" height="47" as="geometry">
            <mxRectangle width="157" height="47" as="alternateBounds" />
          </mxGeometry>
        </mxCell>
        <mxCell id="d4cAKS4Gmh57V5tir3u1-448" value="Products" style="shape=table;startSize=30;container=1;collapsible=0;childLayout=tableLayout;fillColor=#6d8764;fontColor=#ffffff;strokeColor=#3A5431;" vertex="1" parent="1">
          <mxGeometry x="60" y="700" width="250" height="380" as="geometry" />
        </mxCell>
        <mxCell id="d4cAKS4Gmh57V5tir3u1-449" value="" style="shape=tableRow;horizontal=0;startSize=0;swimlaneHead=0;swimlaneBody=0;strokeColor=inherit;top=0;left=0;bottom=0;right=0;collapsible=0;dropTarget=0;fillColor=none;points=[[0,0.5],[1,0.5]];portConstraint=eastwest;" vertex="1" parent="d4cAKS4Gmh57V5tir3u1-448">
          <mxGeometry y="30" width="250" height="35" as="geometry" />
        </mxCell>
        <mxCell id="d4cAKS4Gmh57V5tir3u1-450" value="ID" style="shape=partialRectangle;html=1;whiteSpace=wrap;connectable=0;strokeColor=#C73500;overflow=hidden;fillColor=#fa6800;top=0;left=0;bottom=0;right=0;pointerEvents=1;fontColor=#000000;" vertex="1" parent="d4cAKS4Gmh57V5tir3u1-449">
          <mxGeometry width="107" height="35" as="geometry">
            <mxRectangle width="107" height="35" as="alternateBounds" />
          </mxGeometry>
        </mxCell>
        <mxCell id="d4cAKS4Gmh57V5tir3u1-451" value="Product name" style="shape=partialRectangle;html=1;whiteSpace=wrap;connectable=0;strokeColor=#C73500;overflow=hidden;fillColor=#fa6800;top=0;left=0;bottom=0;right=0;pointerEvents=1;fontColor=#000000;" vertex="1" parent="d4cAKS4Gmh57V5tir3u1-449">
          <mxGeometry x="107" width="143" height="35" as="geometry">
            <mxRectangle width="143" height="35" as="alternateBounds" />
          </mxGeometry>
        </mxCell>
        <mxCell id="d4cAKS4Gmh57V5tir3u1-452" value="" style="shape=tableRow;horizontal=0;startSize=0;swimlaneHead=0;swimlaneBody=0;strokeColor=inherit;top=0;left=0;bottom=0;right=0;collapsible=0;dropTarget=0;fillColor=none;points=[[0,0.5],[1,0.5]];portConstraint=eastwest;" vertex="1" parent="d4cAKS4Gmh57V5tir3u1-448">
          <mxGeometry y="65" width="250" height="46" as="geometry" />
        </mxCell>
        <mxCell id="d4cAKS4Gmh57V5tir3u1-453" value="&lt;font style=&quot;font-size: 16px;&quot;&gt;1&lt;/font&gt;" style="shape=partialRectangle;html=1;whiteSpace=wrap;connectable=0;strokeColor=inherit;overflow=hidden;fillColor=none;top=0;left=0;bottom=0;right=0;pointerEvents=1;" vertex="1" parent="d4cAKS4Gmh57V5tir3u1-452">
          <mxGeometry width="107" height="46" as="geometry">
            <mxRectangle width="107" height="46" as="alternateBounds" />
          </mxGeometry>
        </mxCell>
        <mxCell id="d4cAKS4Gmh57V5tir3u1-454" value="&lt;font style=&quot;font-size: 16px;&quot;&gt;Iphone 11&lt;/font&gt;" style="shape=partialRectangle;html=1;whiteSpace=wrap;connectable=0;strokeColor=inherit;overflow=hidden;fillColor=none;top=0;left=0;bottom=0;right=0;pointerEvents=1;" vertex="1" parent="d4cAKS4Gmh57V5tir3u1-452">
          <mxGeometry x="107" width="143" height="46" as="geometry">
            <mxRectangle width="143" height="46" as="alternateBounds" />
          </mxGeometry>
        </mxCell>
        <mxCell id="d4cAKS4Gmh57V5tir3u1-455" value="" style="shape=tableRow;horizontal=0;startSize=0;swimlaneHead=0;swimlaneBody=0;strokeColor=inherit;top=0;left=0;bottom=0;right=0;collapsible=0;dropTarget=0;fillColor=none;points=[[0,0.5],[1,0.5]];portConstraint=eastwest;" vertex="1" parent="d4cAKS4Gmh57V5tir3u1-448">
          <mxGeometry y="111" width="250" height="47" as="geometry" />
        </mxCell>
        <mxCell id="d4cAKS4Gmh57V5tir3u1-456" value="&lt;font style=&quot;font-size: 16px;&quot;&gt;2&lt;/font&gt;" style="shape=partialRectangle;html=1;whiteSpace=wrap;connectable=0;strokeColor=inherit;overflow=hidden;fillColor=none;top=0;left=0;bottom=0;right=0;pointerEvents=1;" vertex="1" parent="d4cAKS4Gmh57V5tir3u1-455">
          <mxGeometry width="107" height="47" as="geometry">
            <mxRectangle width="107" height="47" as="alternateBounds" />
          </mxGeometry>
        </mxCell>
        <mxCell id="d4cAKS4Gmh57V5tir3u1-457" value="&lt;font style=&quot;font-size: 16px;&quot;&gt;Redmi Note 12&lt;/font&gt;" style="shape=partialRectangle;html=1;whiteSpace=wrap;connectable=0;strokeColor=inherit;overflow=hidden;fillColor=none;top=0;left=0;bottom=0;right=0;pointerEvents=1;" vertex="1" parent="d4cAKS4Gmh57V5tir3u1-455">
          <mxGeometry x="107" width="143" height="47" as="geometry">
            <mxRectangle width="143" height="47" as="alternateBounds" />
          </mxGeometry>
        </mxCell>
        <mxCell id="d4cAKS4Gmh57V5tir3u1-458" value="" style="shape=tableRow;horizontal=0;startSize=0;swimlaneHead=0;swimlaneBody=0;strokeColor=inherit;top=0;left=0;bottom=0;right=0;collapsible=0;dropTarget=0;fillColor=none;points=[[0,0.5],[1,0.5]];portConstraint=eastwest;" vertex="1" parent="d4cAKS4Gmh57V5tir3u1-448">
          <mxGeometry y="158" width="250" height="43" as="geometry" />
        </mxCell>
        <mxCell id="d4cAKS4Gmh57V5tir3u1-459" value="3" style="shape=partialRectangle;html=1;whiteSpace=wrap;connectable=0;strokeColor=inherit;overflow=hidden;fillColor=none;top=0;left=0;bottom=0;right=0;pointerEvents=1;" vertex="1" parent="d4cAKS4Gmh57V5tir3u1-458">
          <mxGeometry width="107" height="43" as="geometry">
            <mxRectangle width="107" height="43" as="alternateBounds" />
          </mxGeometry>
        </mxCell>
        <mxCell id="d4cAKS4Gmh57V5tir3u1-460" value="&lt;font style=&quot;font-size: 16px;&quot;&gt;Galaxy S23+&lt;/font&gt;" style="shape=partialRectangle;html=1;whiteSpace=wrap;connectable=0;strokeColor=inherit;overflow=hidden;fillColor=none;top=0;left=0;bottom=0;right=0;pointerEvents=1;" vertex="1" parent="d4cAKS4Gmh57V5tir3u1-458">
          <mxGeometry x="107" width="143" height="43" as="geometry">
            <mxRectangle width="143" height="43" as="alternateBounds" />
          </mxGeometry>
        </mxCell>
        <mxCell id="d4cAKS4Gmh57V5tir3u1-461" value="" style="shape=tableRow;horizontal=0;startSize=0;swimlaneHead=0;swimlaneBody=0;strokeColor=inherit;top=0;left=0;bottom=0;right=0;collapsible=0;dropTarget=0;fillColor=none;points=[[0,0.5],[1,0.5]];portConstraint=eastwest;" vertex="1" parent="d4cAKS4Gmh57V5tir3u1-448">
          <mxGeometry y="201" width="250" height="40" as="geometry" />
        </mxCell>
        <mxCell id="d4cAKS4Gmh57V5tir3u1-462" value="4" style="shape=partialRectangle;html=1;whiteSpace=wrap;connectable=0;strokeColor=inherit;overflow=hidden;fillColor=none;top=0;left=0;bottom=0;right=0;pointerEvents=1;" vertex="1" parent="d4cAKS4Gmh57V5tir3u1-461">
          <mxGeometry width="107" height="40" as="geometry">
            <mxRectangle width="107" height="40" as="alternateBounds" />
          </mxGeometry>
        </mxCell>
        <mxCell id="d4cAKS4Gmh57V5tir3u1-463" value="&lt;font style=&quot;font-size: 16px;&quot;&gt;Nokia G10&lt;/font&gt;" style="shape=partialRectangle;html=1;whiteSpace=wrap;connectable=0;strokeColor=inherit;overflow=hidden;fillColor=none;top=0;left=0;bottom=0;right=0;pointerEvents=1;" vertex="1" parent="d4cAKS4Gmh57V5tir3u1-461">
          <mxGeometry x="107" width="143" height="40" as="geometry">
            <mxRectangle width="143" height="40" as="alternateBounds" />
          </mxGeometry>
        </mxCell>
        <mxCell id="d4cAKS4Gmh57V5tir3u1-464" style="shape=tableRow;horizontal=0;startSize=0;swimlaneHead=0;swimlaneBody=0;strokeColor=inherit;top=0;left=0;bottom=0;right=0;collapsible=0;dropTarget=0;fillColor=none;points=[[0,0.5],[1,0.5]];portConstraint=eastwest;" vertex="1" parent="d4cAKS4Gmh57V5tir3u1-448">
          <mxGeometry y="241" width="250" height="46" as="geometry" />
        </mxCell>
        <mxCell id="d4cAKS4Gmh57V5tir3u1-465" value="5" style="shape=partialRectangle;html=1;whiteSpace=wrap;connectable=0;strokeColor=inherit;overflow=hidden;fillColor=none;top=0;left=0;bottom=0;right=0;pointerEvents=1;" vertex="1" parent="d4cAKS4Gmh57V5tir3u1-464">
          <mxGeometry width="107" height="46" as="geometry">
            <mxRectangle width="107" height="46" as="alternateBounds" />
          </mxGeometry>
        </mxCell>
        <mxCell id="d4cAKS4Gmh57V5tir3u1-466" value="&lt;span style=&quot;font-size: 16px;&quot;&gt;Lenovo ThinkPad&lt;/span&gt;" style="shape=partialRectangle;html=1;whiteSpace=wrap;connectable=0;strokeColor=inherit;overflow=hidden;fillColor=none;top=0;left=0;bottom=0;right=0;pointerEvents=1;" vertex="1" parent="d4cAKS4Gmh57V5tir3u1-464">
          <mxGeometry x="107" width="143" height="46" as="geometry">
            <mxRectangle width="143" height="46" as="alternateBounds" />
          </mxGeometry>
        </mxCell>
        <mxCell id="d4cAKS4Gmh57V5tir3u1-467" style="shape=tableRow;horizontal=0;startSize=0;swimlaneHead=0;swimlaneBody=0;strokeColor=inherit;top=0;left=0;bottom=0;right=0;collapsible=0;dropTarget=0;fillColor=none;points=[[0,0.5],[1,0.5]];portConstraint=eastwest;" vertex="1" parent="d4cAKS4Gmh57V5tir3u1-448">
          <mxGeometry y="287" width="250" height="47" as="geometry" />
        </mxCell>
        <mxCell id="d4cAKS4Gmh57V5tir3u1-468" value="6" style="shape=partialRectangle;html=1;whiteSpace=wrap;connectable=0;strokeColor=inherit;overflow=hidden;fillColor=none;top=0;left=0;bottom=0;right=0;pointerEvents=1;" vertex="1" parent="d4cAKS4Gmh57V5tir3u1-467">
          <mxGeometry width="107" height="47" as="geometry">
            <mxRectangle width="107" height="47" as="alternateBounds" />
          </mxGeometry>
        </mxCell>
        <mxCell id="d4cAKS4Gmh57V5tir3u1-469" value="&lt;span style=&quot;font-size: 16px;&quot;&gt;Asus VivoBook&lt;/span&gt;" style="shape=partialRectangle;html=1;whiteSpace=wrap;connectable=0;strokeColor=inherit;overflow=hidden;fillColor=none;top=0;left=0;bottom=0;right=0;pointerEvents=1;" vertex="1" parent="d4cAKS4Gmh57V5tir3u1-467">
          <mxGeometry x="107" width="143" height="47" as="geometry">
            <mxRectangle width="143" height="47" as="alternateBounds" />
          </mxGeometry>
        </mxCell>
        <mxCell id="d4cAKS4Gmh57V5tir3u1-470" style="shape=tableRow;horizontal=0;startSize=0;swimlaneHead=0;swimlaneBody=0;strokeColor=inherit;top=0;left=0;bottom=0;right=0;collapsible=0;dropTarget=0;fillColor=none;points=[[0,0.5],[1,0.5]];portConstraint=eastwest;" vertex="1" parent="d4cAKS4Gmh57V5tir3u1-448">
          <mxGeometry y="334" width="250" height="46" as="geometry" />
        </mxCell>
        <mxCell id="d4cAKS4Gmh57V5tir3u1-471" value="7" style="shape=partialRectangle;html=1;whiteSpace=wrap;connectable=0;strokeColor=inherit;overflow=hidden;fillColor=none;top=0;left=0;bottom=0;right=0;pointerEvents=1;" vertex="1" parent="d4cAKS4Gmh57V5tir3u1-470">
          <mxGeometry width="107" height="46" as="geometry">
            <mxRectangle width="107" height="46" as="alternateBounds" />
          </mxGeometry>
        </mxCell>
        <mxCell id="d4cAKS4Gmh57V5tir3u1-472" value="&lt;span style=&quot;font-size: 16px;&quot;&gt;MacBook Air&lt;/span&gt;" style="shape=partialRectangle;html=1;whiteSpace=wrap;connectable=0;strokeColor=inherit;overflow=hidden;fillColor=none;top=0;left=0;bottom=0;right=0;pointerEvents=1;" vertex="1" parent="d4cAKS4Gmh57V5tir3u1-470">
          <mxGeometry x="107" width="143" height="46" as="geometry">
            <mxRectangle width="143" height="46" as="alternateBounds" />
          </mxGeometry>
        </mxCell>
        <mxCell id="d4cAKS4Gmh57V5tir3u1-473" value="Categories" style="shape=table;startSize=30;container=1;collapsible=0;childLayout=tableLayout;fillColor=#6d8764;fontColor=#ffffff;strokeColor=#3A5431;" vertex="1" parent="1">
          <mxGeometry x="390" y="700" width="250" height="135.00000000000068" as="geometry" />
        </mxCell>
        <mxCell id="d4cAKS4Gmh57V5tir3u1-474" value="" style="shape=tableRow;horizontal=0;startSize=0;swimlaneHead=0;swimlaneBody=0;strokeColor=inherit;top=0;left=0;bottom=0;right=0;collapsible=0;dropTarget=0;fillColor=none;points=[[0,0.5],[1,0.5]];portConstraint=eastwest;" vertex="1" parent="d4cAKS4Gmh57V5tir3u1-473">
          <mxGeometry y="30" width="250" height="29" as="geometry" />
        </mxCell>
        <mxCell id="d4cAKS4Gmh57V5tir3u1-475" value="ID" style="shape=partialRectangle;html=1;whiteSpace=wrap;connectable=0;strokeColor=#C73500;overflow=hidden;fillColor=#fa6800;top=0;left=0;bottom=0;right=0;pointerEvents=1;fontColor=#000000;" vertex="1" parent="d4cAKS4Gmh57V5tir3u1-474">
          <mxGeometry width="107" height="29" as="geometry">
            <mxRectangle width="107" height="29" as="alternateBounds" />
          </mxGeometry>
        </mxCell>
        <mxCell id="d4cAKS4Gmh57V5tir3u1-476" value="Category name" style="shape=partialRectangle;html=1;whiteSpace=wrap;connectable=0;strokeColor=#C73500;overflow=hidden;fillColor=#fa6800;top=0;left=0;bottom=0;right=0;pointerEvents=1;fontColor=#000000;" vertex="1" parent="d4cAKS4Gmh57V5tir3u1-474">
          <mxGeometry x="107" width="143" height="29" as="geometry">
            <mxRectangle width="143" height="29" as="alternateBounds" />
          </mxGeometry>
        </mxCell>
        <mxCell id="d4cAKS4Gmh57V5tir3u1-477" value="" style="shape=tableRow;horizontal=0;startSize=0;swimlaneHead=0;swimlaneBody=0;strokeColor=inherit;top=0;left=0;bottom=0;right=0;collapsible=0;dropTarget=0;fillColor=none;points=[[0,0.5],[1,0.5]];portConstraint=eastwest;" vertex="1" parent="d4cAKS4Gmh57V5tir3u1-473">
          <mxGeometry y="59" width="250" height="38" as="geometry" />
        </mxCell>
        <mxCell id="d4cAKS4Gmh57V5tir3u1-478" value="&lt;font style=&quot;font-size: 16px;&quot;&gt;1&lt;/font&gt;" style="shape=partialRectangle;html=1;whiteSpace=wrap;connectable=0;strokeColor=inherit;overflow=hidden;fillColor=none;top=0;left=0;bottom=0;right=0;pointerEvents=1;" vertex="1" parent="d4cAKS4Gmh57V5tir3u1-477">
          <mxGeometry width="107" height="38" as="geometry">
            <mxRectangle width="107" height="38" as="alternateBounds" />
          </mxGeometry>
        </mxCell>
        <mxCell id="d4cAKS4Gmh57V5tir3u1-479" value="Telephone" style="shape=partialRectangle;html=1;whiteSpace=wrap;connectable=0;strokeColor=inherit;overflow=hidden;fillColor=none;top=0;left=0;bottom=0;right=0;pointerEvents=1;" vertex="1" parent="d4cAKS4Gmh57V5tir3u1-477">
          <mxGeometry x="107" width="143" height="38" as="geometry">
            <mxRectangle width="143" height="38" as="alternateBounds" />
          </mxGeometry>
        </mxCell>
        <mxCell id="d4cAKS4Gmh57V5tir3u1-480" value="" style="shape=tableRow;horizontal=0;startSize=0;swimlaneHead=0;swimlaneBody=0;strokeColor=inherit;top=0;left=0;bottom=0;right=0;collapsible=0;dropTarget=0;fillColor=none;points=[[0,0.5],[1,0.5]];portConstraint=eastwest;" vertex="1" parent="d4cAKS4Gmh57V5tir3u1-473">
          <mxGeometry y="97" width="250" height="38" as="geometry" />
        </mxCell>
        <mxCell id="d4cAKS4Gmh57V5tir3u1-481" value="2" style="shape=partialRectangle;html=1;whiteSpace=wrap;connectable=0;strokeColor=inherit;overflow=hidden;fillColor=none;top=0;left=0;bottom=0;right=0;pointerEvents=1;" vertex="1" parent="d4cAKS4Gmh57V5tir3u1-480">
          <mxGeometry width="107" height="38" as="geometry">
            <mxRectangle width="107" height="38" as="alternateBounds" />
          </mxGeometry>
        </mxCell>
        <mxCell id="d4cAKS4Gmh57V5tir3u1-482" value="Laptop" style="shape=partialRectangle;html=1;whiteSpace=wrap;connectable=0;strokeColor=inherit;overflow=hidden;fillColor=none;top=0;left=0;bottom=0;right=0;pointerEvents=1;" vertex="1" parent="d4cAKS4Gmh57V5tir3u1-480">
          <mxGeometry x="107" width="143" height="38" as="geometry">
            <mxRectangle width="143" height="38" as="alternateBounds" />
          </mxGeometry>
        </mxCell>
        <mxCell id="d4cAKS4Gmh57V5tir3u1-626" value="Customers" style="shape=table;startSize=30;container=1;collapsible=0;childLayout=tableLayout;fillColor=#6d8764;fontColor=#ffffff;strokeColor=#3A5431;fontSize=16;" vertex="1" parent="1">
          <mxGeometry x="715" y="680" width="435" height="300" as="geometry" />
        </mxCell>
        <mxCell id="d4cAKS4Gmh57V5tir3u1-627" value="" style="shape=tableRow;horizontal=0;startSize=0;swimlaneHead=0;swimlaneBody=0;strokeColor=inherit;top=0;left=0;bottom=0;right=0;collapsible=0;dropTarget=0;fillColor=none;points=[[0,0.5],[1,0.5]];portConstraint=eastwest;" vertex="1" parent="d4cAKS4Gmh57V5tir3u1-626">
          <mxGeometry y="30" width="435" height="42" as="geometry" />
        </mxCell>
        <mxCell id="d4cAKS4Gmh57V5tir3u1-628" value="&lt;font style=&quot;font-size: 16px;&quot;&gt;ID&lt;/font&gt;" style="shape=partialRectangle;html=1;whiteSpace=wrap;connectable=0;strokeColor=#C73500;overflow=hidden;fillColor=#fa6800;top=0;left=0;bottom=0;right=0;pointerEvents=1;fontColor=#000000;" vertex="1" parent="d4cAKS4Gmh57V5tir3u1-627">
          <mxGeometry width="119" height="42" as="geometry">
            <mxRectangle width="119" height="42" as="alternateBounds" />
          </mxGeometry>
        </mxCell>
        <mxCell id="d4cAKS4Gmh57V5tir3u1-629" value="&lt;font style=&quot;font-size: 16px;&quot;&gt;Customer&amp;nbsp; name&lt;/font&gt;" style="shape=partialRectangle;html=1;whiteSpace=wrap;connectable=0;strokeColor=#C73500;overflow=hidden;fillColor=#fa6800;top=0;left=0;bottom=0;right=0;pointerEvents=1;fontColor=#000000;" vertex="1" parent="d4cAKS4Gmh57V5tir3u1-627">
          <mxGeometry x="119" width="157" height="42" as="geometry">
            <mxRectangle width="157" height="42" as="alternateBounds" />
          </mxGeometry>
        </mxCell>
        <mxCell id="d4cAKS4Gmh57V5tir3u1-651" value="&lt;font style=&quot;font-size: 16px;&quot;&gt;Customer firstname&lt;/font&gt;" style="shape=partialRectangle;html=1;whiteSpace=wrap;connectable=0;strokeColor=#C73500;overflow=hidden;fillColor=#fa6800;top=0;left=0;bottom=0;right=0;pointerEvents=1;fontColor=#000000;" vertex="1" parent="d4cAKS4Gmh57V5tir3u1-627">
          <mxGeometry x="276" width="159" height="42" as="geometry">
            <mxRectangle width="159" height="42" as="alternateBounds" />
          </mxGeometry>
        </mxCell>
        <mxCell id="d4cAKS4Gmh57V5tir3u1-630" value="" style="shape=tableRow;horizontal=0;startSize=0;swimlaneHead=0;swimlaneBody=0;strokeColor=inherit;top=0;left=0;bottom=0;right=0;collapsible=0;dropTarget=0;fillColor=none;points=[[0,0.5],[1,0.5]];portConstraint=eastwest;" vertex="1" parent="d4cAKS4Gmh57V5tir3u1-626">
          <mxGeometry y="72" width="435" height="43" as="geometry" />
        </mxCell>
        <mxCell id="d4cAKS4Gmh57V5tir3u1-631" value="&lt;font style=&quot;font-size: 16px;&quot;&gt;1&lt;/font&gt;" style="shape=partialRectangle;html=1;whiteSpace=wrap;connectable=0;strokeColor=inherit;overflow=hidden;fillColor=none;top=0;left=0;bottom=0;right=0;pointerEvents=1;" vertex="1" parent="d4cAKS4Gmh57V5tir3u1-630">
          <mxGeometry width="119" height="43" as="geometry">
            <mxRectangle width="119" height="43" as="alternateBounds" />
          </mxGeometry>
        </mxCell>
        <mxCell id="d4cAKS4Gmh57V5tir3u1-632" value="&lt;span style=&quot;font-size: 16px;&quot;&gt;James&lt;/span&gt;" style="shape=partialRectangle;html=1;whiteSpace=wrap;connectable=0;strokeColor=inherit;overflow=hidden;fillColor=none;top=0;left=0;bottom=0;right=0;pointerEvents=1;" vertex="1" parent="d4cAKS4Gmh57V5tir3u1-630">
          <mxGeometry x="119" width="157" height="43" as="geometry">
            <mxRectangle width="157" height="43" as="alternateBounds" />
          </mxGeometry>
        </mxCell>
        <mxCell id="d4cAKS4Gmh57V5tir3u1-652" value="&lt;font style=&quot;font-size: 16px;&quot;&gt;Harrison&lt;/font&gt;" style="shape=partialRectangle;html=1;whiteSpace=wrap;connectable=0;strokeColor=inherit;overflow=hidden;fillColor=none;top=0;left=0;bottom=0;right=0;pointerEvents=1;" vertex="1" parent="d4cAKS4Gmh57V5tir3u1-630">
          <mxGeometry x="276" width="159" height="43" as="geometry">
            <mxRectangle width="159" height="43" as="alternateBounds" />
          </mxGeometry>
        </mxCell>
        <mxCell id="d4cAKS4Gmh57V5tir3u1-633" value="" style="shape=tableRow;horizontal=0;startSize=0;swimlaneHead=0;swimlaneBody=0;strokeColor=inherit;top=0;left=0;bottom=0;right=0;collapsible=0;dropTarget=0;fillColor=none;points=[[0,0.5],[1,0.5]];portConstraint=eastwest;" vertex="1" parent="d4cAKS4Gmh57V5tir3u1-626">
          <mxGeometry y="115" width="435" height="47" as="geometry" />
        </mxCell>
        <mxCell id="d4cAKS4Gmh57V5tir3u1-634" value="&lt;font style=&quot;font-size: 16px;&quot;&gt;2&lt;/font&gt;" style="shape=partialRectangle;html=1;whiteSpace=wrap;connectable=0;strokeColor=inherit;overflow=hidden;fillColor=none;top=0;left=0;bottom=0;right=0;pointerEvents=1;" vertex="1" parent="d4cAKS4Gmh57V5tir3u1-633">
          <mxGeometry width="119" height="47" as="geometry">
            <mxRectangle width="119" height="47" as="alternateBounds" />
          </mxGeometry>
        </mxCell>
        <mxCell id="d4cAKS4Gmh57V5tir3u1-635" value="&lt;span style=&quot;font-size: 16px;&quot;&gt;Emily&lt;/span&gt;" style="shape=partialRectangle;html=1;whiteSpace=wrap;connectable=0;strokeColor=inherit;overflow=hidden;fillColor=none;top=0;left=0;bottom=0;right=0;pointerEvents=1;" vertex="1" parent="d4cAKS4Gmh57V5tir3u1-633">
          <mxGeometry x="119" width="157" height="47" as="geometry">
            <mxRectangle width="157" height="47" as="alternateBounds" />
          </mxGeometry>
        </mxCell>
        <mxCell id="d4cAKS4Gmh57V5tir3u1-653" value="&lt;font style=&quot;font-size: 16px;&quot;&gt;Carter&lt;/font&gt;" style="shape=partialRectangle;html=1;whiteSpace=wrap;connectable=0;strokeColor=inherit;overflow=hidden;fillColor=none;top=0;left=0;bottom=0;right=0;pointerEvents=1;" vertex="1" parent="d4cAKS4Gmh57V5tir3u1-633">
          <mxGeometry x="276" width="159" height="47" as="geometry">
            <mxRectangle width="159" height="47" as="alternateBounds" />
          </mxGeometry>
        </mxCell>
        <mxCell id="d4cAKS4Gmh57V5tir3u1-636" value="" style="shape=tableRow;horizontal=0;startSize=0;swimlaneHead=0;swimlaneBody=0;strokeColor=inherit;top=0;left=0;bottom=0;right=0;collapsible=0;dropTarget=0;fillColor=none;points=[[0,0.5],[1,0.5]];portConstraint=eastwest;" vertex="1" parent="d4cAKS4Gmh57V5tir3u1-626">
          <mxGeometry y="162" width="435" height="47" as="geometry" />
        </mxCell>
        <mxCell id="d4cAKS4Gmh57V5tir3u1-637" value="&lt;font style=&quot;font-size: 16px;&quot;&gt;3&lt;/font&gt;" style="shape=partialRectangle;html=1;whiteSpace=wrap;connectable=0;strokeColor=inherit;overflow=hidden;fillColor=none;top=0;left=0;bottom=0;right=0;pointerEvents=1;" vertex="1" parent="d4cAKS4Gmh57V5tir3u1-636">
          <mxGeometry width="119" height="47" as="geometry">
            <mxRectangle width="119" height="47" as="alternateBounds" />
          </mxGeometry>
        </mxCell>
        <mxCell id="d4cAKS4Gmh57V5tir3u1-638" value="&lt;span style=&quot;font-size: 16px;&quot;&gt;Michael&lt;/span&gt;" style="shape=partialRectangle;html=1;whiteSpace=wrap;connectable=0;strokeColor=inherit;overflow=hidden;fillColor=none;top=0;left=0;bottom=0;right=0;pointerEvents=1;" vertex="1" parent="d4cAKS4Gmh57V5tir3u1-636">
          <mxGeometry x="119" width="157" height="47" as="geometry">
            <mxRectangle width="157" height="47" as="alternateBounds" />
          </mxGeometry>
        </mxCell>
        <mxCell id="d4cAKS4Gmh57V5tir3u1-654" value="&lt;font style=&quot;font-size: 16px;&quot;&gt;Bennett&lt;/font&gt;" style="shape=partialRectangle;html=1;whiteSpace=wrap;connectable=0;strokeColor=inherit;overflow=hidden;fillColor=none;top=0;left=0;bottom=0;right=0;pointerEvents=1;" vertex="1" parent="d4cAKS4Gmh57V5tir3u1-636">
          <mxGeometry x="276" width="159" height="47" as="geometry">
            <mxRectangle width="159" height="47" as="alternateBounds" />
          </mxGeometry>
        </mxCell>
        <mxCell id="d4cAKS4Gmh57V5tir3u1-639" value="" style="shape=tableRow;horizontal=0;startSize=0;swimlaneHead=0;swimlaneBody=0;strokeColor=inherit;top=0;left=0;bottom=0;right=0;collapsible=0;dropTarget=0;fillColor=none;points=[[0,0.5],[1,0.5]];portConstraint=eastwest;" vertex="1" parent="d4cAKS4Gmh57V5tir3u1-626">
          <mxGeometry y="209" width="435" height="46" as="geometry" />
        </mxCell>
        <mxCell id="d4cAKS4Gmh57V5tir3u1-640" value="&lt;font style=&quot;font-size: 16px;&quot;&gt;4&lt;/font&gt;" style="shape=partialRectangle;html=1;whiteSpace=wrap;connectable=0;strokeColor=inherit;overflow=hidden;fillColor=none;top=0;left=0;bottom=0;right=0;pointerEvents=1;" vertex="1" parent="d4cAKS4Gmh57V5tir3u1-639">
          <mxGeometry width="119" height="46" as="geometry">
            <mxRectangle width="119" height="46" as="alternateBounds" />
          </mxGeometry>
        </mxCell>
        <mxCell id="d4cAKS4Gmh57V5tir3u1-641" value="&lt;font style=&quot;font-size: 16px;&quot;&gt;Daniel&lt;/font&gt;" style="shape=partialRectangle;html=1;whiteSpace=wrap;connectable=0;strokeColor=inherit;overflow=hidden;fillColor=none;top=0;left=0;bottom=0;right=0;pointerEvents=1;" vertex="1" parent="d4cAKS4Gmh57V5tir3u1-639">
          <mxGeometry x="119" width="157" height="46" as="geometry">
            <mxRectangle width="157" height="46" as="alternateBounds" />
          </mxGeometry>
        </mxCell>
        <mxCell id="d4cAKS4Gmh57V5tir3u1-655" value="&lt;font style=&quot;font-size: 16px;&quot;&gt;Turner&lt;/font&gt;" style="shape=partialRectangle;html=1;whiteSpace=wrap;connectable=0;strokeColor=inherit;overflow=hidden;fillColor=none;top=0;left=0;bottom=0;right=0;pointerEvents=1;" vertex="1" parent="d4cAKS4Gmh57V5tir3u1-639">
          <mxGeometry x="276" width="159" height="46" as="geometry">
            <mxRectangle width="159" height="46" as="alternateBounds" />
          </mxGeometry>
        </mxCell>
        <mxCell id="d4cAKS4Gmh57V5tir3u1-642" style="shape=tableRow;horizontal=0;startSize=0;swimlaneHead=0;swimlaneBody=0;strokeColor=inherit;top=0;left=0;bottom=0;right=0;collapsible=0;dropTarget=0;fillColor=none;points=[[0,0.5],[1,0.5]];portConstraint=eastwest;" vertex="1" parent="d4cAKS4Gmh57V5tir3u1-626">
          <mxGeometry y="255" width="435" height="45" as="geometry" />
        </mxCell>
        <mxCell id="d4cAKS4Gmh57V5tir3u1-643" value="&lt;font style=&quot;font-size: 16px;&quot;&gt;5&lt;/font&gt;" style="shape=partialRectangle;html=1;whiteSpace=wrap;connectable=0;strokeColor=inherit;overflow=hidden;fillColor=none;top=0;left=0;bottom=0;right=0;pointerEvents=1;" vertex="1" parent="d4cAKS4Gmh57V5tir3u1-642">
          <mxGeometry width="119" height="45" as="geometry">
            <mxRectangle width="119" height="45" as="alternateBounds" />
          </mxGeometry>
        </mxCell>
        <mxCell id="d4cAKS4Gmh57V5tir3u1-644" value="&lt;span style=&quot;font-size: 16px;&quot;&gt;Olivia&lt;/span&gt;" style="shape=partialRectangle;html=1;whiteSpace=wrap;connectable=0;strokeColor=inherit;overflow=hidden;fillColor=none;top=0;left=0;bottom=0;right=0;pointerEvents=1;" vertex="1" parent="d4cAKS4Gmh57V5tir3u1-642">
          <mxGeometry x="119" width="157" height="45" as="geometry">
            <mxRectangle width="157" height="45" as="alternateBounds" />
          </mxGeometry>
        </mxCell>
        <mxCell id="d4cAKS4Gmh57V5tir3u1-656" value="&lt;font style=&quot;font-size: 16px;&quot;&gt;Parker&lt;/font&gt;" style="shape=partialRectangle;html=1;whiteSpace=wrap;connectable=0;strokeColor=inherit;overflow=hidden;fillColor=none;top=0;left=0;bottom=0;right=0;pointerEvents=1;" vertex="1" parent="d4cAKS4Gmh57V5tir3u1-642">
          <mxGeometry x="276" width="159" height="45" as="geometry">
            <mxRectangle width="159" height="45" as="alternateBounds" />
          </mxGeometry>
        </mxCell>
      </root>
    </mxGraphModel>
  </diagram>
</mxfile>
